<svg width="92" height="116" viewBox="0 0 92 116" fill="none" xmlns="http://www.w3.org/2000/svg">
<path d="M6 4.5H56.5791C58.9406 4.50003 61.1956 5.48252 62.8037 7.21191L84.2246 30.25C85.6869 31.8227 86.5 33.8906 86.5 36.0381V110C86.5 113.038 84.0376 115.5 81 115.5H6C2.96243 115.5 0.5 113.038 0.5 110V10L0.506836 9.7168C0.65422 6.81084 3.05741 4.5 6 4.5Z" fill="white" stroke="#C4C8CF"/>
<path d="M11.5 15H40" stroke="#CDD0D6" stroke-width="3" stroke-linecap="round"/>
<path d="M11.5 23H21.5" stroke="#CDD0D6" stroke-width="3" stroke-linecap="round"/>
<g filter="url(#filter0_d_302_1985)">
<path d="M86.5004 34.5002L62 34.5C58.6863 34.5 56 31.8137 56 28.5V5" stroke="#C4C8CF"/>
</g>
<path d="M1 106C1 108.209 2.79086 110 5 110H82C84.2091 110 86 108.209 86 106V110C86 112.761 83.7614 115 81 115H6C3.23858 115 1 112.761 1 110V106Z" fill="#F1F3F9"/>
<path d="M86 57.5V35H62C58.4101 35 55.5 32.0899 55.5 28.5V5H32.5V57.5H86Z" fill="url(#paint0_radial_302_1985)"/>
<path d="M30.5 46.5V60.5H74.5V50C74.5 48.067 72.933 46.5 71 46.5H30.5Z" stroke="#C4C8CF"/>
<path d="M30.5 60.5V74.5H74.5V60.5H30.5Z" stroke="#C4C8CF"/>
<path d="M30.5 74.5V88.5H74.5V74.5H30.5Z" stroke="#C4C8CF"/>
<path d="M30.5 88.5V102.5H71C72.933 102.5 74.5 100.933 74.5 99V88.5H30.5Z" stroke="#C4C8CF"/>
<path d="M15 46.5C13.067 46.5 11.5 48.067 11.5 50V60.5H30.5V46.5H15Z" fill="#D7D8E5" fill-opacity="0.6" stroke="#C4C8CF"/>
<path d="M11.5 60.5V74.5H30.5V60.5H11.5Z" fill="#D7D8E5" fill-opacity="0.6" stroke="#C4C8CF"/>
<path d="M11.5 74.5V88.5H30.5V74.5H11.5Z" fill="#D7D8E5" fill-opacity="0.6" stroke="#C4C8CF"/>
<path d="M11.5 88.5V99C11.5 100.933 13.067 102.5 15 102.5H30.5V88.5H11.5Z" fill="#D7D8E5" fill-opacity="0.6" stroke="#C4C8CF"/>
<defs>
<filter id="filter0_d_302_1985" x="50.5" y="0" width="41.0005" height="40" filterUnits="userSpaceOnUse" color-interpolation-filters="sRGB">
<feFlood flood-opacity="0" result="BackgroundImageFix"/>
<feColorMatrix in="SourceAlpha" type="matrix" values="0 0 0 0 0 0 0 0 0 0 0 0 0 0 0 0 0 0 127 0" result="hardAlpha"/>
<feOffset/>
<feGaussianBlur stdDeviation="2.5"/>
<feComposite in2="hardAlpha" operator="out"/>
<feColorMatrix type="matrix" values="0 0 0 0 0.685337 0 0 0 0 0.716803 0 0 0 0 0.921334 0 0 0 1 0"/>
<feBlend mode="normal" in2="BackgroundImageFix" result="effect1_dropShadow_302_1985"/>
<feBlend mode="normal" in="SourceGraphic" in2="effect1_dropShadow_302_1985" result="shape"/>
</filter>
<radialGradient id="paint0_radial_302_1985" cx="0" cy="0" r="1" gradientUnits="userSpaceOnUse" gradientTransform="translate(73 21.5) rotate(95.3322) scale(37.663 34.3131)">
<stop offset="0.359574" stop-color="#E2E3E7"/>
<stop offset="1" stop-color="white" stop-opacity="0"/>
</radialGradient>
</defs>
</svg>
