<svg width="209" height="135" viewBox="0 0 209 135" fill="none" xmlns="http://www.w3.org/2000/svg">
<rect x="0.5" y="0.5" width="93.3158" height="111" rx="3.92105" fill="url(#paint0_linear_308_2133)" stroke="#C4C8CF"/>
<path d="M0 15.4736L94.3158 15.4736" stroke="#C4C8CF"/>
<circle cx="8.10528" cy="8.10503" r="1.47368" fill="#808395"/>
<circle cx="14.0001" cy="8.10503" r="1.47368" fill="#808395"/>
<circle cx="19.8948" cy="8.10503" r="1.47368" fill="#808395"/>
<path d="M21.3684 90.5791H70.7368" stroke="#CDD0D6" stroke-width="3" stroke-linecap="round"/>
<path d="M21.3684 101.263H44.2105" stroke="#CDD0D6" stroke-width="3" stroke-linecap="round"/>
<path d="M34.5 23.5V37.5H78.5V27C78.5 25.067 76.933 23.5 75 23.5H34.5Z" stroke="#C4C8CF"/>
<path d="M34.5 37.5V51.5H78.5V37.5H34.5Z" stroke="#C4C8CF"/>
<path d="M34.5 51.5V65.5H78.5V51.5H34.5Z" stroke="#C4C8CF"/>
<path d="M34.5 65.5V79.5H75C76.933 79.5 78.5 77.933 78.5 76V65.5H34.5Z" stroke="#C4C8CF"/>
<path d="M19 23.5C17.067 23.5 15.5 25.067 15.5 27V37.5H34.5V23.5H19Z" fill="#D7D8E5" fill-opacity="0.6" stroke="#C4C8CF"/>
<path d="M15.5 37.5V51.5H34.5V37.5H15.5Z" fill="#D7D8E5" fill-opacity="0.6" stroke="#C4C8CF"/>
<path d="M15.5 51.5V65.5H34.5V51.5H15.5Z" fill="#D7D8E5" fill-opacity="0.6" stroke="#C4C8CF"/>
<path d="M15.5 65.5V76C15.5 77.933 17.067 79.5 19 79.5H34.5V65.5H15.5Z" fill="#D7D8E5" fill-opacity="0.6" stroke="#C4C8CF"/>
<rect x="114.5" y="11.5" width="93.3158" height="111" rx="3.92105" fill="url(#paint1_linear_308_2133)" stroke="#C4C8CF"/>
<path d="M114 26.4736L208.316 26.4736" stroke="#C4C8CF"/>
<circle cx="122.105" cy="19.105" r="1.47368" fill="#808395"/>
<circle cx="128" cy="19.105" r="1.47368" fill="#808395"/>
<circle cx="133.895" cy="19.105" r="1.47368" fill="#808395"/>
<path d="M135.368 36.5791H184.737" stroke="#CDD0D6" stroke-width="3" stroke-linecap="round"/>
<path d="M135.368 47.2632H158.211" stroke="#CDD0D6" stroke-width="3" stroke-linecap="round"/>
<path d="M148.5 57.5V71.5H192.5V61C192.5 59.067 190.933 57.5 189 57.5H148.5Z" stroke="#C4C8CF"/>
<path d="M148.5 71.5V85.5H192.5V71.5H148.5Z" stroke="#C4C8CF"/>
<path d="M148.5 85.5V99.5H192.5V85.5H148.5Z" stroke="#C4C8CF"/>
<path d="M148.5 99.5V113.5H189C190.933 113.5 192.5 111.933 192.5 110V99.5H148.5Z" stroke="#C4C8CF"/>
<path d="M133 57.5C131.067 57.5 129.5 59.067 129.5 61V71.5H148.5V57.5H133Z" fill="#D7D8E5" fill-opacity="0.6" stroke="#C4C8CF"/>
<path d="M129.5 71.5V85.5H148.5V71.5H129.5Z" fill="#D7D8E5" fill-opacity="0.6" stroke="#C4C8CF"/>
<path d="M129.5 85.5V99.5H148.5V85.5H129.5Z" fill="#D7D8E5" fill-opacity="0.6" stroke="#C4C8CF"/>
<path d="M129.5 99.5V110C129.5 111.933 131.067 113.5 133 113.5H148.5V99.5H129.5Z" fill="#D7D8E5" fill-opacity="0.6" stroke="#C4C8CF"/>
<rect x="59.5" y="23.5" width="93.3158" height="111" rx="3.92105" fill="url(#paint2_linear_308_2133)" stroke="#C4C8CF"/>
<path d="M59 38.4736L153.316 38.4736" stroke="#C4C8CF"/>
<circle cx="67.1053" cy="31.105" r="1.47368" fill="#808395"/>
<circle cx="73.0001" cy="31.105" r="1.47368" fill="#808395"/>
<circle cx="78.8948" cy="31.105" r="1.47368" fill="#808395"/>
<path d="M80.3684 109.579H129.737" stroke="#CDD0D6" stroke-width="3" stroke-linecap="round"/>
<path d="M80.3684 120.263H103.211" stroke="#CDD0D6" stroke-width="3" stroke-linecap="round"/>
<path d="M116.597 48.7134C126.057 52.7671 132.684 62.1618 132.684 73.1054C132.684 78.6967 130.952 83.8824 127.998 88.1596L114.873 77.0847C115.427 75.8726 115.737 74.5253 115.737 73.1054C115.737 69.752 114.013 66.8014 111.404 65.0901L116.597 48.7134Z" fill="url(#paint3_radial_308_2133)"/>
<path d="M106.158 46.5791C108.052 46.5791 109.899 46.779 111.68 47.1562L106.488 63.5322C106.379 63.5285 106.268 63.5264 106.158 63.5264C103.693 63.5264 101.446 64.4572 99.7488 65.9863L85.2429 56.7881C90.0977 50.5741 97.6612 46.5791 106.158 46.5791Z" fill="url(#paint4_radial_308_2133)" fill-opacity="0.3"/>
<path d="M96.9841 70.3418C96.7209 71.2168 96.5789 72.1447 96.5789 73.1055C96.579 78.3957 100.868 82.6846 106.158 82.6846C108.156 82.6846 110.01 82.0717 111.546 81.0254L124.671 92.0996C119.891 96.7591 113.36 99.6318 106.158 99.6318C91.5079 99.6318 79.6317 87.7555 79.6316 73.1055C79.6316 68.8012 80.6568 64.7361 82.4763 61.1416L96.9841 70.3418Z" fill="url(#paint5_radial_308_2133)" fill-opacity="0.55"/>
<defs>
<linearGradient id="paint0_linear_308_2133" x1="47.1579" y1="0" x2="47.1579" y2="112" gradientUnits="userSpaceOnUse">
<stop offset="0.135741" stop-color="#E7E8EF"/>
<stop offset="0.140777" stop-color="white"/>
</linearGradient>
<linearGradient id="paint1_linear_308_2133" x1="161.158" y1="11" x2="161.158" y2="123" gradientUnits="userSpaceOnUse">
<stop offset="0.135741" stop-color="#E7E8EF"/>
<stop offset="0.140777" stop-color="white"/>
</linearGradient>
<linearGradient id="paint2_linear_308_2133" x1="106.158" y1="23" x2="106.158" y2="135" gradientUnits="userSpaceOnUse">
<stop offset="0.135741" stop-color="#E7E8EF"/>
<stop offset="0.140777" stop-color="white"/>
</linearGradient>
<radialGradient id="paint3_radial_308_2133" cx="0" cy="0" r="1" gradientUnits="userSpaceOnUse" gradientTransform="translate(106.158 73.1054) rotate(90) scale(26.5263 26.5263)">
<stop offset="0.635229" stop-color="#808395"/>
<stop offset="0.635702" stop-color="#BBB9C6"/>
</radialGradient>
<radialGradient id="paint4_radial_308_2133" cx="0" cy="0" r="1" gradientUnits="userSpaceOnUse" gradientTransform="translate(106.158 73.1049) rotate(90) scale(26.5258 26.5267)">
<stop offset="0.635229" stop-color="#808395"/>
<stop offset="0.635702" stop-color="#BBB9C6"/>
</radialGradient>
<radialGradient id="paint5_radial_308_2133" cx="0" cy="0" r="1" gradientUnits="userSpaceOnUse" gradientTransform="translate(106.158 73.1053) rotate(90) scale(26.5265 26.5261)">
<stop offset="0.635229" stop-color="#808395"/>
<stop offset="0.635702" stop-color="#BBB9C6"/>
</radialGradient>
</defs>
</svg>
