<svg width="92" height="116" viewBox="0 0 92 116" fill="none" xmlns="http://www.w3.org/2000/svg">
<path d="M6 4.5H56.5791C58.9406 4.50003 61.1956 5.48252 62.8037 7.21191L84.2246 30.25C85.6869 31.8227 86.5 33.8906 86.5 36.0381V110C86.5 113.038 84.0376 115.5 81 115.5H6C2.96243 115.5 0.5 113.038 0.5 110V10L0.506836 9.7168C0.65422 6.81084 3.05741 4.5 6 4.5Z" fill="white" stroke="#C4C8CF"/>
<path d="M11.5 15H40" stroke="#CDD0D6" stroke-width="3" stroke-linecap="round"/>
<path d="M11.5 23H21.5" stroke="#CDD0D6" stroke-width="3" stroke-linecap="round"/>
<g filter="url(#filter0_d_302_1984)">
<path d="M86.5004 34.5002L62 34.5C58.6863 34.5 56 31.8137 56 28.5V5" stroke="#C4C8CF"/>
</g>
<mask id="path-5-outside-1_302_1984" maskUnits="userSpaceOnUse" x="22.2207" y="47" width="46" height="54" fill="black">
<rect fill="white" x="22.2207" y="47" width="46" height="54"/>
<path d="M62.2109 48C64.6038 48 66.5439 49.9402 66.5439 52.333V58.1113H66.5449V95.666C66.5449 98.0591 64.6056 99.9998 62.2129 100H31.8848C27.1 100 23.2207 96.12 23.2207 91.334V56.666C23.2208 51.88 27.1 48 31.8848 48H62.2109Z"/>
</mask>
<path d="M62.2109 48C64.6038 48 66.5439 49.9402 66.5439 52.333V58.1113H66.5449V95.666C66.5449 98.0591 64.6056 99.9998 62.2129 100H31.8848C27.1 100 23.2207 96.12 23.2207 91.334V56.666C23.2208 51.88 27.1 48 31.8848 48H62.2109Z" fill="url(#paint0_radial_302_1984)"/>
<path d="M66.5439 58.1113H65.5439V59.1113H66.5439V58.1113ZM66.5449 58.1113H67.5449V57.1113H66.5449V58.1113ZM62.2129 100V101H62.213L62.2129 100ZM31.8848 100L31.8848 101H31.8848V100ZM23.2207 91.334H22.2207V91.334L23.2207 91.334ZM23.2207 56.666L22.2207 56.666V56.666H23.2207ZM31.8848 48V47H31.8848L31.8848 48ZM62.2109 48V49C64.0515 49 65.5439 50.4925 65.5439 52.333H66.5439H67.5439C67.5439 49.3879 65.156 47 62.2109 47V48ZM66.5439 52.333H65.5439V58.1113H66.5439H67.5439V52.333H66.5439ZM66.5439 58.1113V59.1113H66.5449V58.1113V57.1113H66.5439V58.1113ZM66.5449 58.1113H65.5449V95.666H66.5449H67.5449V58.1113H66.5449ZM66.5449 95.666H65.5449C65.5449 97.5073 64.0528 98.9999 62.2128 99L62.2129 100L62.213 101C65.1583 101 67.5449 98.611 67.5449 95.666H66.5449ZM62.2129 100V99H31.8848V100V101H62.2129V100ZM31.8848 100L31.8848 99C27.6525 99 24.2207 95.5679 24.2207 91.334L23.2207 91.334L22.2207 91.334C22.2207 96.6721 26.5475 101 31.8848 101L31.8848 100ZM23.2207 91.334H24.2207V56.666H23.2207H22.2207V91.334H23.2207ZM23.2207 56.666L24.2207 56.666C24.2208 52.4321 27.6525 49 31.8848 49L31.8848 48L31.8848 47C26.5475 47 22.2208 51.328 22.2207 56.666L23.2207 56.666ZM31.8848 48V49H62.2109V48V47H31.8848V48Z" fill="#C4C8CF" mask="url(#path-5-outside-1_302_1984)"/>
<path d="M23.2207 64.6108C23.2207 61.0208 26.1307 58.1108 29.7199 58.1108H66.5452V95.6662C66.5452 98.0594 64.6054 100 62.2126 100H31.8848C27.1 100 23.2207 96.12 23.2207 91.334V64.6108Z" fill="url(#paint1_radial_302_1984)"/>
<path d="M23.2207 64.6108C23.2207 61.0208 26.1307 58.1108 29.7199 58.1108H66.5452V95.6662C66.5452 98.0594 64.6054 100 62.2126 100H31.8848C27.1 100 23.2207 96.12 23.2207 91.334V64.6108Z" fill="url(#paint2_radial_302_1984)" fill-opacity="0.5"/>
<path d="M23.2207 71.8335C23.2207 68.2431 26.1307 65.3335 29.7199 65.3335H49.2154C46.8226 65.3335 44.8828 67.2737 44.8828 69.667V78.3335C44.8828 80.7263 42.9433 82.667 40.5501 82.667H31.886C27.1008 82.667 23.2219 86.5471 23.2219 91.3335V71.8335H23.2207Z" fill="url(#paint3_linear_302_1984)"/>
<path d="M23.2207 56.6661C23.2207 51.8801 27.1 48 31.8848 48H49.2146V65.3339H31.8848C27.1 65.3339 23.2207 69.214 23.2207 74V56.6661Z" fill="url(#paint4_linear_302_1984)"/>
<path d="M23.2207 56.6661C23.2207 51.8801 27.1 48 31.8848 48H49.2146V65.3339H31.8848C27.1 65.3339 23.2207 69.214 23.2207 74V56.6661Z" fill="url(#paint5_radial_302_1984)"/>
<path d="M23.2207 56.6661C23.2207 51.8801 27.1 48 31.8848 48H49.2146V65.3339H31.8848C27.1 65.3339 23.2207 69.214 23.2207 74V56.6661Z" fill="url(#paint6_linear_302_1984)"/>
<path d="M49.2145 48H62.2112C64.6041 48 66.5439 49.9398 66.5439 52.3327V61.0012C66.5439 63.394 64.6041 65.3339 62.2112 65.3339H49.2145C46.8217 65.3339 44.8818 63.394 44.8818 61.0012V52.3327C44.8818 49.9398 46.8217 48 49.2145 48Z" fill="url(#paint7_radial_302_1984)"/>
<path d="M20.6934 72.5557H34.4121C37.0043 72.5557 39.1059 74.6572 39.1059 77.2491V90.973C39.1059 93.5653 37.0043 95.6664 34.4121 95.6664H20.6934C18.1015 95.6664 16 93.5653 16 90.973V77.2491C16 74.6572 18.1015 72.5557 20.6934 72.5557Z" fill="url(#paint8_radial_302_1984)"/>
<path d="M33.626 90.7135H30.064L27.828 86.5044C27.748 86.3569 27.6867 86.2403 27.644 86.1542C27.6074 86.0624 27.5668 85.9576 27.5242 85.841H27.488C27.4328 85.9888 27.3808 86.1083 27.332 86.1997C27.2829 86.2923 27.2248 86.4057 27.1573 86.5409L24.838 90.7123H21.4788L25.51 84.1002L21.7554 77.5063H25.2707L27.2581 81.2642C27.3381 81.4177 27.4059 81.553 27.4608 81.6696C27.5221 81.7797 27.5835 81.9117 27.6448 82.0657H27.6814C27.7667 81.8882 27.8341 81.7464 27.8841 81.6424C27.9394 81.5384 28.0133 81.4003 28.1047 81.2288L30.166 77.5084H33.5159L29.7061 84.0015L33.6269 90.7143L33.626 90.7135Z" fill="white"/>
<path d="M1 106C1 108.209 2.79086 110 5 110H82C84.2091 110 86 108.209 86 106V110C86 112.761 83.7614 115 81 115H6C3.23858 115 1 112.761 1 110V106Z" fill="#F1F3F9"/>
<path d="M86 57.5V35H62C58.4101 35 55.5 32.0899 55.5 28.5V5H32.5V57.5H86Z" fill="url(#paint9_radial_302_1984)"/>
<defs>
<filter id="filter0_d_302_1984" x="50.5" y="0" width="41.0005" height="40" filterUnits="userSpaceOnUse" color-interpolation-filters="sRGB">
<feFlood flood-opacity="0" result="BackgroundImageFix"/>
<feColorMatrix in="SourceAlpha" type="matrix" values="0 0 0 0 0 0 0 0 0 0 0 0 0 0 0 0 0 0 127 0" result="hardAlpha"/>
<feOffset/>
<feGaussianBlur stdDeviation="2.5"/>
<feComposite in2="hardAlpha" operator="out"/>
<feColorMatrix type="matrix" values="0 0 0 0 0.685337 0 0 0 0 0.716803 0 0 0 0 0.921334 0 0 0 1 0"/>
<feBlend mode="normal" in2="BackgroundImageFix" result="effect1_dropShadow_302_1984"/>
<feBlend mode="normal" in="SourceGraphic" in2="effect1_dropShadow_302_1984" result="shape"/>
</filter>
<radialGradient id="paint0_radial_302_1984" cx="0" cy="0" r="1" gradientTransform="matrix(-24.4242 -19.7642 19.7054 -24.3603 69.5939 67.9782)" gradientUnits="userSpaceOnUse">
<stop offset="0.44" stop-color="#D5D8E1"/>
<stop offset="1" stop-color="#F3F3F7"/>
</radialGradient>
<radialGradient id="paint1_radial_302_1984" cx="0" cy="0" r="1" gradientTransform="matrix(-40.9185 -43.0589 -33.397 31.7512 66.6713 103.307)" gradientUnits="userSpaceOnUse">
<stop offset="0.06" stop-color="#DEDDE4"/>
<stop offset="0.42" stop-color="#C8C7D1"/>
<stop offset="0.7" stop-color="#ABAEBA"/>
</radialGradient>
<radialGradient id="paint2_radial_302_1984" cx="0" cy="0" r="1" gradientTransform="matrix(-17.3002 -16.73 -12.9411 13.3883 36.325 73.346)" gradientUnits="userSpaceOnUse">
<stop stop-color="#252525" stop-opacity="0.698039"/>
<stop offset="0.99" stop-color="#272727" stop-opacity="0"/>
</radialGradient>
<linearGradient id="paint3_linear_302_1984" x1="23.2207" y1="78.3333" x2="43.1274" y2="78.3333" gradientUnits="userSpaceOnUse">
<stop stop-color="#DCE1E7"/>
<stop offset="0.33" stop-color="#B8BCC7"/>
</linearGradient>
<linearGradient id="paint4_linear_302_1984" x1="24.371" y1="69.2971" x2="48.3908" y2="48.4638" gradientUnits="userSpaceOnUse">
<stop stop-color="#66D052"/>
<stop offset="1" stop-color="#85E972"/>
</linearGradient>
<radialGradient id="paint5_radial_302_1984" cx="0" cy="0" r="1" gradientUnits="userSpaceOnUse" gradientTransform="translate(48.5595 58.7233) rotate(-180) scale(13.0299 27.5767)">
<stop offset="0.29" stop-color="#D4D9DF"/>
<stop offset="1" stop-color="#F6F7FB"/>
</radialGradient>
<linearGradient id="paint6_linear_302_1984" x1="34.9395" y1="61" x2="23.2207" y2="61" gradientUnits="userSpaceOnUse">
<stop offset="0.18" stop-color="#F7F7F7" stop-opacity="0"/>
<stop offset="1" stop-color="#D3D3D3"/>
</linearGradient>
<radialGradient id="paint7_radial_302_1984" cx="0" cy="0" r="1" gradientTransform="matrix(-24.4242 -19.7642 19.7054 -24.3603 69.5939 67.9782)" gradientUnits="userSpaceOnUse">
<stop offset="0.44" stop-color="#D5D8E1"/>
<stop offset="1" stop-color="#F3F3F7"/>
</radialGradient>
<radialGradient id="paint8_radial_302_1984" cx="0" cy="0" r="1" gradientTransform="matrix(23.1014 23.1094 65.7875 -65.7968 16.6789 72.6797)" gradientUnits="userSpaceOnUse">
<stop stop-color="#C0BECB"/>
<stop offset="0.94" stop-color="#74788B"/>
</radialGradient>
<radialGradient id="paint9_radial_302_1984" cx="0" cy="0" r="1" gradientUnits="userSpaceOnUse" gradientTransform="translate(73 21.5) rotate(95.3322) scale(37.663 34.3131)">
<stop offset="0.359574" stop-color="#E2E3E7"/>
<stop offset="1" stop-color="white" stop-opacity="0"/>
</radialGradient>
</defs>
</svg>
