<svg width="37" height="38" viewBox="0 0 37 38" fill="none" xmlns="http://www.w3.org/2000/svg">
<path d="M5.46041 12.3744V19.2754H10.9608C11.6483 19.2754 12.2632 19.143 12.8053 18.8785C13.2188 18.6769 13.5662 18.4017 13.849 18.054L18.2333 21.0227V36.434H0.620361V10.6498C0.620361 10.17 0.741294 9.71817 0.955253 9.32422L5.46041 12.3744ZM5.46041 31.9311H12.5021C13.3353 31.9311 14.0829 31.7657 14.7441 31.4351C15.4052 31.0913 15.9207 30.6151 16.2909 30.0068C16.6744 29.3853 16.8666 28.6514 16.8666 27.8052C16.8666 27.0382 16.7012 26.3503 16.3706 25.7419C16.04 25.1336 15.5572 24.6508 14.9224 24.2938C14.2876 23.9235 13.5271 23.7385 12.6411 23.7385H5.46041V31.9311ZM12.0333 7.87109C13.9249 7.90946 15.4763 9.19785 16.6878 9.96638C17.9309 10.7334 18.8501 10.7918 19.4452 11.9952C19.6522 12.4046 19.8228 12.8189 19.9593 13.2374L12.0333 7.87109Z" fill="#3B32EC"/>
<path d="M25.5479 15.6799L26.8065 16.5809V36.6657H20.7821V19.6773L3.59048 7.36963L10.4906 4.90051L25.5479 15.6799Z" fill="#3B32EC"/>
<path d="M34.1664 11.5421L35.3796 12.4455V36.6656H29.3552V15.4712L13.6408 3.77226L20.454 1.33435L34.1664 11.5421Z" fill="#3B32EC"/>
<path d="M26.8065 36.6657H20.7821V19.7511L26.8065 16.5796V36.6657Z" fill="#3320D9"/>
<path d="M35.3796 36.6656H29.3552V15.5803L35.3796 12.4088V36.6656Z" fill="#3320D9"/>
</svg>
